ffmpeg started on 2025-06-04 at 19:20:02
Report written to "D:\Convert\FFMetrics\reports\psnr_report-6.txt"
Log level: 32
Command line:
ffmpeg -hide_banner -nostdin -i "G:\\\xc0\xed\xe8\xec\xe5\\\xce\xed\xe3\xee\xe8\xed\xe3\xe8\\!_36_\xce\xf1\xe5\xed\xfc_2024\\DreamCast\\\xc2\xfb \xef\xf0\xe0\xe2\xe4\xe0 \xe6\xe5\xed\xe8\xf2\xe5\xf1\xfc\\[DC] Kekkon Surutte Hontou Desuka - 02_Telegram_HEVC.mkv" -i "G:\\\xc0\xed\xe8\xec\xe5\\\xce\xed\xe3\xee\xe8\xed\xe3\xe8\\!_36_\xce\xf1\xe5\xed\xfc_2024\\DreamCast\\\xc2\xfb \xef\xf0\xe0\xe2\xe4\xe0 \xe6\xe5\xed\xe8\xf2\xe5\xf1\xfc\\[DC] Kekkon Surutte Hontou Desuka - 02_Telegram.mp4" -lavfi "[0:v]settb=AVTB,setpts=PTS-STARTPTS,format=pix_fmts=yuv420p10,fps=24000/1001,scale=1920:1080:flags=bicubic[main];[1:v]settb=AVTB,setpts=PTS-STARTPTS,format=pix_fmts=yuv420p,fps=24000/1001,scale=1920:1080:flags=bicubic[ref];[main][ref]psnr=eof_action=endall:stats_file='D\\:/Convert/FFMetrics/logs/psnr_logfile-6.txt'" -f null -
Input #0, matroska,webm, from 'G:\Аниме\Онгоинги\!_36_Осень_2024\DreamCast\Вы правда женитесь\[DC] Kekkon Surutte Hontou Desuka - 02_Telegram_HEVC.mkv':
  Metadata:
    COMPATIBLE_BRANDS: isomiso2avc1mp41
    MAJOR_BRAND     : isom
    MINOR_VERSION   : 512
    ENCODER         : Lavf61.7.100
  Duration: 00:23:47.71, start: -0.021000, bitrate: 1252 kb/s
  Stream #0:0: Video: hevc (Main 10), yuv420p10le(tv, bt709, progressive), 1920x1080 [SAR 1:1 DAR 16:9], 23.81 fps, 23.81 tbr, 1k tbn (default)
      Metadata:
        HANDLER_NAME    : VideoHandler
        VENDOR_ID       : [0][0][0][0]
        ENCODER         : Lavc61.19.100 libx265
        BPS             : 1056273
        DURATION        : 00:23:46.572000000
        NUMBER_OF_FRAMES: 33966
        NUMBER_OF_BYTES : 188356342
        _STATISTICS_WRITING_APP: mkvpropedit v66.0.0 ('Josie') 64-bit
        _STATISTICS_WRITING_DATE_UTC: 2025-05-30 07:23:45
        _STATISTICS_TAGS: BPS DURATION NUMBER_OF_FRAMES NUMBER_OF_BYTES
  Stream #0:1: Audio: aac (LC), 48000 Hz, stereo, fltp (default)
      Metadata:
        HANDLER_NAME    : SoundHandler
        VENDOR_ID       : [0][0][0][0]
        ENCODER         : Lavc61.19.100 aac
        BPS             : 193302
        DURATION        : 00:23:47.712000000
        NUMBER_OF_FRAMES: 66925
        NUMBER_OF_BYTES : 34497466
        _STATISTICS_WRITING_APP: mkvpropedit v66.0.0 ('Josie') 64-bit
        _STATISTICS_WRITING_DATE_UTC: 2025-05-30 07:23:45
        _STATISTICS_TAGS: BPS DURATION NUMBER_OF_FRAMES NUMBER_OF_BYTES
Input #1, mov,mp4,m4a,3gp,3g2,mj2, from 'G:\Аниме\Онгоинги\!_36_Осень_2024\DreamCast\Вы правда женитесь\[DC] Kekkon Surutte Hontou Desuka - 02_Telegram.mp4':
  Metadata:
    major_brand     : isom
    minor_version   : 512
    compatible_brands: isomiso2avc1mp41
    encoder         : Lavf61.1.100
  Duration: 00:23:47.68, start: 0.000000, bitrate: 3434 kb/s
  Stream #1:0[0x1](und): Video: h264 (High) (avc1 / 0x31637661), yuv420p(tv, bt709, progressive), 1920x1080 [SAR 1:1 DAR 16:9], 3288 kb/s, 23.81 fps, 23.81 tbr, 16k tbn (default)
      Metadata:
        handler_name    : VideoHandler
        vendor_id       : [0][0][0][0]
        encoder         : Lavc61.3.100 h264_qsv
  Stream #1:1[0x2](und): Audio: aac (HE-AACv2) (mp4a / 0x6134706D), 48000 Hz, stereo, fltp, 144 kb/s (default)
      Metadata:
        handler_name    : SoundHandler
        vendor_id       : [0][0][0][0]
Stream mapping:
  Stream #0:0 (hevc) -> settb:default
  Stream #1:0 (h264) -> settb:default
  psnr:default -> Stream #0:0 (wrapped_avframe)
  Stream #0:1 -> #0:1 (aac (native) -> pcm_s16le (native))
Output #0, null, to 'pipe:':
  Metadata:
    COMPATIBLE_BRANDS: isomiso2avc1mp41
    MAJOR_BRAND     : isom
    MINOR_VERSION   : 512
    encoder         : Lavf61.7.100
  Stream #0:0: Video: wrapped_avframe, yuv420p10le(tv, bt709, progressive), 1920x1080 [SAR 1:1 DAR 16:9], q=2-31, 200 kb/s, 23.98 fps, 23.98 tbn
      Metadata:
        encoder         : Lavc61.19.100 wrapped_avframe
  Stream #0:1: Audio: pcm_s16le, 48000 Hz, stereo, s16, 1536 kb/s (default)
      Metadata:
        HANDLER_NAME    : SoundHandler
        VENDOR_ID       : [0][0][0][0]
        _STATISTICS_TAGS: BPS DURATION NUMBER_OF_FRAMES NUMBER_OF_BYTES
        BPS             : 193302
        DURATION        : 00:23:47.712000000
        NUMBER_OF_FRAMES: 66925
        NUMBER_OF_BYTES : 34497466
        _STATISTICS_WRITING_APP: mkvpropedit v66.0.0 ('Josie') 64-bit
        _STATISTICS_WRITING_DATE_UTC: 2025-05-30 07:23:45
        encoder         : Lavc61.19.100 pcm_s16le
frame=  163 fps=0.0 q=-0.0 size=N/A time=00:00:06.79 bitrate=N/A speed=  13x    frame=  398 fps=382 q=-0.0 size=N/A time=00:00:16.59 bitrate=N/A speed=15.9x    frame=  647 fps=413 q=-0.0 size=N/A time=00:00:26.98 bitrate=N/A speed=17.2x    frame=  873 fps=422 q=-0.0 size=N/A time=00:00:36.41 bitrate=N/A speed=17.6x    frame= 1115 fps=430 q=-0.0 size=N/A time=00:00:46.50 bitrate=N/A speed=17.9x    frame= 1361 fps=439 q=-0.0 size=N/A time=00:00:56.76 bitrate=N/A speed=18.3x    frame= 1559 fps=431 q=-0.0 size=N/A time=00:01:05.02 bitrate=N/A speed=  18x    frame= 1778 fps=429 q=-0.0 size=N/A time=00:01:14.15 bitrate=N/A speed=17.9x    frame= 2014 fps=433 q=-0.0 size=N/A time=00:01:24.00 bitrate=N/A speed=18.1x    frame= 2230 fps=431 q=-0.0 size=N/A time=00:01:33.00 bitrate=N/A speed=  18x    frame= 2455 fps=432 q=-0.0 size=N/A time=00:01:42.39 bitrate=N/A speed=  18x    frame= 2625 fps=423 q=-0.0 size=N/A time=00:01:49.48 bitrate=N/A speed=17.6x    frame= 2831 fps=422 q=-0.0 size=N/A time=00:01:58.07 bitrate=N/A speed=17.6x    frame= 3045 fps=421 q=-0.0 size=N/A time=00:02:07.00 bitrate=N/A speed=17.5x    frame= 3263 fps=421 q=-0.0 size=N/A time=00:02:16.09 bitrate=N/A speed=17.6x    frame= 3504 fps=424 q=-0.0 size=N/A time=00:02:26.14 bitrate=N/A speed=17.7x    frame= 3721 fps=424 q=-0.0 size=N/A time=00:02:35.19 bitrate=N/A speed=17.7x    frame= 3945 fps=424 q=-0.0 size=N/A time=00:02:44.53 bitrate=N/A speed=17.7x    frame= 4220 fps=430 q=-0.0 size=N/A time=00:02:56.00 bitrate=N/A speed=17.9x    frame= 4479 fps=433 q=-0.0 size=N/A time=00:03:06.81 bitrate=N/A speed=18.1x    frame= 4766 fps=439 q=-0.0 size=N/A time=00:03:18.78 bitrate=N/A speed=18.3x    frame= 5011 fps=441 q=-0.0 size=N/A time=00:03:29.00 bitrate=N/A speed=18.4x    frame= 5275 fps=444 q=-0.0 size=N/A time=00:03:40.01 bitrate=N/A speed=18.5x    frame= 5525 fps=446 q=-0.0 size=N/A time=00:03:50.43 bitrate=N/A speed=18.6x    frame= 5765 fps=446 q=-0.0 size=N/A time=00:04:00.44 bitrate=N/A speed=18.6x    frame= 5992 fps=446 q=-0.0 size=N/A time=00:04:09.91 bitrate=N/A speed=18.6x    frame= 6176 fps=443 q=-0.0 size=N/A time=00:04:17.59 bitrate=N/A speed=18.5x    frame= 6389 fps=442 q=-0.0 size=N/A time=00:04:26.47 bitrate=N/A speed=18.4x    frame= 6607 fps=441 q=-0.0 size=N/A time=00:04:35.56 bitrate=N/A speed=18.4x    frame= 6860 fps=443 q=-0.0 size=N/A time=00:04:46.11 bitrate=N/A speed=18.5x    frame= 7105 fps=444 q=-0.0 size=N/A time=00:04:56.33 bitrate=N/A speed=18.5x    frame= 7337 fps=444 q=-0.0 size=N/A time=00:05:06.01 bitrate=N/A speed=18.5x    frame= 7587 fps=445 q=-0.0 size=N/A time=00:05:16.44 bitrate=N/A speed=18.6x    frame= 7811 fps=445 q=-0.0 size=N/A time=00:05:25.78 bitrate=N/A speed=18.6x    frame= 8070 fps=446 q=-0.0 size=N/A time=00:05:36.58 bitrate=N/A speed=18.6x    frame= 8315 fps=447 q=-0.0 size=N/A time=00:05:46.80 bitrate=N/A speed=18.7x    frame= 8565 fps=448 q=-0.0 size=N/A time=00:05:57.23 bitrate=N/A speed=18.7x    frame= 8818 fps=449 q=-0.0 size=N/A time=00:06:07.78 bitrate=N/A speed=18.7x    frame= 9082 fps=451 q=-0.0 size=N/A time=00:06:18.79 bitrate=N/A speed=18.8x    frame= 9354 fps=453 q=-0.0 size=N/A time=00:06:30.13 bitrate=N/A speed=18.9x    frame= 9620 fps=454 q=-0.0 size=N/A time=00:06:41.23 bitrate=N/A speed=  19x    frame= 9841 fps=454 q=-0.0 size=N/A time=00:06:50.45 bitrate=N/A speed=18.9x    frame=10095 fps=455 q=-0.0 size=N/A time=00:07:01.04 bitrate=N/A speed=  19x    frame=10335 fps=455 q=-0.0 size=N/A time=00:07:11.05 bitrate=N/A speed=  19x    frame=10609 fps=457 q=-0.0 size=N/A time=00:07:22.48 bitrate=N/A speed=  19x    frame=10846 fps=457 q=-0.0 size=N/A time=00:07:32.36 bitrate=N/A speed=19.1x    frame=11089 fps=457 q=-0.0 size=N/A time=00:07:42.50 bitrate=N/A speed=19.1x    frame=11360 fps=459 q=-0.0 size=N/A time=00:07:53.80 bitrate=N/A speed=19.1x    frame=11603 fps=459 q=-0.0 size=N/A time=00:08:03.94 bitrate=N/A speed=19.1x    frame=11833 fps=458 q=-0.0 size=N/A time=00:08:13.53 bitrate=N/A speed=19.1x    frame=12069 fps=459 q=-0.0 size=N/A time=00:08:23.37 bitrate=N/A speed=19.1x    frame=12331 fps=459 q=-0.0 size=N/A time=00:08:34.30 bitrate=N/A speed=19.2x    frame=12562 fps=459 q=-0.0 size=N/A time=00:08:43.94 bitrate=N/A speed=19.2x    frame=12811 fps=460 q=-0.0 size=N/A time=00:08:54.32 bitrate=N/A speed=19.2x    frame=13071 fps=460 q=-0.0 size=N/A time=00:09:05.16 bitrate=N/A speed=19.2x    frame=13333 fps=461 q=-0.0 size=N/A time=00:09:16.09 bitrate=N/A speed=19.2x    frame=13519 fps=459 q=-0.0 size=N/A time=00:09:23.85 bitrate=N/A speed=19.2x    frame=13699 fps=458 q=-0.0 size=N/A time=00:09:31.36 bitrate=N/A speed=19.1x    frame=13847 fps=455 q=-0.0 size=N/A time=00:09:37.53 bitrate=N/A speed=  19x    frame=14076 fps=455 q=-0.0 size=N/A time=00:09:47.08 bitrate=N/A speed=  19x    frame=14317 fps=455 q=-0.0 size=N/A time=00:09:57.13 bitrate=N/A speed=  19x    frame=14545 fps=455 q=-0.0 size=N/A time=00:10:06.64 bitrate=N/A speed=  19x    frame=14782 fps=455 q=-0.0 size=N/A time=00:10:16.53 bitrate=N/A speed=  19x    frame=15027 fps=455 q=-0.0 size=N/A time=00:10:26.75 bitrate=N/A speed=  19x    frame=15304 fps=456 q=-0.0 size=N/A time=00:10:38.34 bitrate=N/A speed=  19x    frame=15569 fps=457 q=-0.0 size=N/A time=00:10:49.35 bitrate=N/A speed=19.1x    frame=15817 fps=457 q=-0.0 size=N/A time=00:10:59.70 bitrate=N/A speed=19.1x    frame=16032 fps=457 q=-0.0 size=N/A time=00:11:08.66 bitrate=N/A speed=19.1x    frame=16279 fps=457 q=-0.0 size=N/A time=00:11:18.96 bitrate=N/A speed=19.1x    frame=16538 fps=458 q=-0.0 size=N/A time=00:11:29.77 bitrate=N/A speed=19.1x    frame=16807 fps=459 q=-0.0 size=N/A time=00:11:40.99 bitrate=N/A speed=19.1x    frame=17042 fps=459 q=-0.0 size=N/A time=00:11:50.79 bitrate=N/A speed=19.1x    frame=17316 fps=460 q=-0.0 size=N/A time=00:12:02.22 bitrate=N/A speed=19.2x    frame=17558 fps=460 q=-0.0 size=N/A time=00:12:12.31 bitrate=N/A speed=19.2x    frame=17818 fps=460 q=-0.0 size=N/A time=00:12:23.15 bitrate=N/A speed=19.2x    frame=18041 fps=460 q=-0.0 size=N/A time=00:12:32.46 bitrate=N/A speed=19.2x    frame=18237 fps=459 q=-0.0 size=N/A time=00:12:40.63 bitrate=N/A speed=19.1x    frame=18492 fps=459 q=-0.0 size=N/A time=00:12:51.27 bitrate=N/A speed=19.2x    frame=18745 fps=460 q=-0.0 size=N/A time=00:13:01.82 bitrate=N/A speed=19.2x    frame=19002 fps=460 q=-0.0 size=N/A time=00:13:12.54 bitrate=N/A speed=19.2x    frame=19270 fps=461 q=-0.0 size=N/A time=00:13:23.71 bitrate=N/A speed=19.2x    frame=19525 fps=461 q=-0.0 size=N/A time=00:13:34.35 bitrate=N/A speed=19.2x    frame=19768 fps=462 q=-0.0 size=N/A time=00:13:44.49 bitrate=N/A speed=19.2x    frame=20036 fps=462 q=-0.0 size=N/A time=00:13:55.66 bitrate=N/A speed=19.3x    frame=20282 fps=462 q=-0.0 size=N/A time=00:14:05.92 bitrate=N/A speed=19.3x    frame=20548 fps=463 q=-0.0 size=N/A time=00:14:17.02 bitrate=N/A speed=19.3x    frame=20813 fps=464 q=-0.0 size=N/A time=00:14:28.07 bitrate=N/A speed=19.3x    frame=21053 fps=464 q=-0.0 size=N/A time=00:14:38.08 bitrate=N/A speed=19.3x    frame=21294 fps=464 q=-0.0 size=N/A time=00:14:48.17 bitrate=N/A speed=19.3x    frame=21563 fps=464 q=-0.0 size=N/A time=00:14:59.35 bitrate=N/A speed=19.4x    frame=21807 fps=464 q=-0.0 size=N/A time=00:15:09.53 bitrate=N/A speed=19.4x    frame=22081 fps=465 q=-0.0 size=N/A time=00:15:20.96 bitrate=N/A speed=19.4x    frame=22339 fps=465 q=-0.0 size=N/A time=00:15:31.72 bitrate=N/A speed=19.4x    frame=22581 fps=466 q=-0.0 size=N/A time=00:15:41.81 bitrate=N/A speed=19.4x    frame=22820 fps=465 q=-0.0 size=N/A time=00:15:51.78 bitrate=N/A speed=19.4x    frame=23081 fps=466 q=-0.0 size=N/A time=00:16:02.67 bitrate=N/A speed=19.4x    frame=23349 fps=466 q=-0.0 size=N/A time=00:16:13.84 bitrate=N/A speed=19.5x    frame=23583 fps=466 q=-0.0 size=N/A time=00:16:23.60 bitrate=N/A speed=19.4x    frame=23839 fps=467 q=-0.0 size=N/A time=00:16:34.28 bitrate=N/A speed=19.5x    frame=24078 fps=467 q=-0.0 size=N/A time=00:16:44.25 bitrate=N/A speed=19.5x    frame=24352 fps=467 q=-0.0 size=N/A time=00:16:55.68 bitrate=N/A speed=19.5x    frame=24618 fps=468 q=-0.0 size=N/A time=00:17:06.77 bitrate=N/A speed=19.5x    frame=24869 fps=468 q=-0.0 size=N/A time=00:17:17.24 bitrate=N/A speed=19.5x    frame=25137 fps=468 q=-0.0 size=N/A time=00:17:28.42 bitrate=N/A speed=19.5x    frame=25409 fps=469 q=-0.0 size=N/A time=00:17:39.76 bitrate=N/A speed=19.6x    frame=25668 fps=469 q=-0.0 size=N/A time=00:17:50.56 bitrate=N/A speed=19.6x    frame=25909 fps=469 q=-0.0 size=N/A time=00:18:00.62 bitrate=N/A speed=19.6x    frame=26117 fps=469 q=-0.0 size=N/A time=00:18:09.29 bitrate=N/A speed=19.5x    frame=26398 fps=469 q=-0.0 size=N/A time=00:18:21.01 bitrate=N/A speed=19.6x    frame=26671 fps=470 q=-0.0 size=N/A time=00:18:32.40 bitrate=N/A speed=19.6x    frame=26930 fps=470 q=-0.0 size=N/A time=00:18:43.20 bitrate=N/A speed=19.6x    frame=27179 fps=470 q=-0.0 size=N/A time=00:18:53.59 bitrate=N/A speed=19.6x    frame=27409 fps=470 q=-0.0 size=N/A time=00:19:03.18 bitrate=N/A speed=19.6x    frame=27678 fps=470 q=-0.0 size=N/A time=00:19:14.40 bitrate=N/A speed=19.6x    frame=27921 fps=470 q=-0.0 size=N/A time=00:19:24.53 bitrate=N/A speed=19.6x    frame=28148 fps=470 q=-0.0 size=N/A time=00:19:34.00 bitrate=N/A speed=19.6x    frame=28379 fps=470 q=-0.0 size=N/A time=00:19:43.64 bitrate=N/A speed=19.6x    frame=28639 fps=470 q=-0.0 size=N/A time=00:19:54.48 bitrate=N/A speed=19.6x    frame=28855 fps=470 q=-0.0 size=N/A time=00:20:03.49 bitrate=N/A speed=19.6x    frame=29095 fps=470 q=-0.0 size=N/A time=00:20:13.50 bitrate=N/A speed=19.6x    frame=29357 fps=470 q=-0.0 size=N/A time=00:20:24.43 bitrate=N/A speed=19.6x    frame=29619 fps=470 q=-0.0 size=N/A time=00:20:35.35 bitrate=N/A speed=19.6x    frame=29761 fps=469 q=-0.0 size=N/A time=00:20:41.28 bitrate=N/A speed=19.6x    frame=29899 fps=467 q=-0.0 size=N/A time=00:20:47.03 bitrate=N/A speed=19.5x    frame=30126 fps=467 q=-0.0 size=N/A time=00:20:56.50 bitrate=N/A speed=19.5x    frame=30343 fps=467 q=-0.0 size=N/A time=00:21:05.55 bitrate=N/A speed=19.5x    frame=30565 fps=466 q=-0.0 size=N/A time=00:21:14.81 bitrate=N/A speed=19.4x    frame=30775 fps=466 q=-0.0 size=N/A time=00:21:23.57 bitrate=N/A speed=19.4x    frame=31006 fps=466 q=-0.0 size=N/A time=00:21:33.20 bitrate=N/A speed=19.4x    frame=31191 fps=465 q=-0.0 size=N/A time=00:21:40.92 bitrate=N/A speed=19.4x    frame=31411 fps=465 q=-0.0 size=N/A time=00:21:50.10 bitrate=N/A speed=19.4x    frame=31672 fps=465 q=-0.0 size=N/A time=00:22:00.98 bitrate=N/A speed=19.4x    frame=31913 fps=465 q=-0.0 size=N/A time=00:22:11.03 bitrate=N/A speed=19.4x    frame=32102 fps=464 q=-0.0 size=N/A time=00:22:18.92 bitrate=N/A speed=19.4x    frame=32237 fps=463 q=-0.0 size=N/A time=00:22:24.55 bitrate=N/A speed=19.3x    frame=32432 fps=462 q=-0.0 size=N/A time=00:22:32.68 bitrate=N/A speed=19.3x    frame=32614 fps=461 q=-0.0 size=N/A time=00:22:40.27 bitrate=N/A speed=19.2x    frame=32788 fps=460 q=-0.0 size=N/A time=00:22:47.53 bitrate=N/A speed=19.2x    frame=32968 fps=460 q=-0.0 size=N/A time=00:22:55.04 bitrate=N/A speed=19.2x    frame=33142 fps=459 q=-0.0 size=N/A time=00:23:02.29 bitrate=N/A speed=19.1x    frame=33315 fps=458 q=-0.0 size=N/A time=00:23:09.51 bitrate=N/A speed=19.1x    frame=33516 fps=457 q=-0.0 size=N/A time=00:23:17.89 bitrate=N/A speed=19.1x    frame=33704 fps=457 q=-0.0 size=N/A time=00:23:25.73 bitrate=N/A speed=  19x    frame=33895 fps=456 q=-0.0 size=N/A time=00:23:33.70 bitrate=N/A speed=  19x    frame=34082 fps=455 q=-0.0 size=N/A time=00:23:41.50 bitrate=N/A speed=  19x    [Parsed_psnr_10 @ 0000021da7e2afc0] PSNR y:47.698811 u:51.081415 v:51.372231 average:48.588904 min:39.288992 max:inf
[out#0/null @ 0000021d9ad5f080] video:14697KiB audio:267700KiB subtitle:0KiB other streams:0KiB global headers:0KiB muxing overhead: unknown
frame=34204 fps=455 q=-0.0 Lsize=N/A time=00:23:46.59 bitrate=N/A speed=  19x    
